<?xml version="1.0" encoding="utf-8"?>
<!-- Generator: Adobe Illustrator 17.1.0, SVG Export Plug-In . SVG Version: 6.00 Build 0)  -->
<!DOCTYPE svg PUBLIC "-//W3C//DTD SVG 1.1//EN" "http://www.w3.org/Graphics/SVG/1.1/DTD/svg11.dtd">
<svg version="1.1" id="Layer_2" xmlns="http://www.w3.org/2000/svg" xmlns:xlink="http://www.w3.org/1999/xlink" x="0px" y="0px"
	 viewBox="0 0 160 64" enable-background="new 0 0 160 64" xml:space="preserve">
<path fill="#FFFFFF" d="M48,2c-7.732,0-14,6.268-14,14s6.268,14,14,14s14-6.268,14-14S55.732,2,48,2z M49,17v9h-2v-9h-9v-2h9V6h2v9
	h9v2H49z"/>
<path fill="#FFFFFF" d="M80,2c-7.732,0-14,6.268-14,14s6.268,14,14,14s14-6.268,14-14S87.732,2,80,2z M76,23h-3v-3l8.828-8.657
	l2.828,2.828L76,23z M86.071,12.757l-2.828-2.828l2.414-2.414l2.828,2.828L86.071,12.757z"/>
<path fill="#FFFFFF" d="M16,2C8.268,2,2,8.268,2,16s6.268,14,14,14s14-6.268,14-14S23.732,2,16,2z M23.778,22.364l-1.414,1.414
	L16,17.414l-6.364,6.364l-1.414-1.414L14.586,16L8.222,9.636l1.414-1.414L16,14.586l6.364-6.364l1.414,1.414L17.414,16
	L23.778,22.364z"/>
<path fill="#FFFFFF" d="M106.667,15h10.667L116,23h-8L106.667,15z M114,9h-4v2h4V9z M126,16c0,7.732-6.268,14-14,14s-14-6.268-14-14
	s6.268-14,14-14S126,8.268,126,16z M121,11h-5V9c0-1.105-0.895-2-2-2h-4c-1.105,0-2,0.895-2,2v2h-5v4h1.333L106,25h12l1.667-10H121
	V11z"/>
<path opacity="0.4" fill="#FFFFFF" d="M106.667,47h10.667L116,55h-8L106.667,47z M114,41h-4v2h4V41z M126,48c0,7.732-6.268,14-14,14
	s-14-6.268-14-14s6.268-14,14-14S126,40.268,126,48z M121,43h-5v-2c0-1.105-0.895-2-2-2h-4c-1.105,0-2,0.895-2,2v2h-5v4h1.333
	L106,57h12l1.667-10H121V43z"/>
<path opacity="0.4" fill="#FFFFFF" d="M48,34c-7.732,0-14,6.268-14,14s6.268,14,14,14s14-6.268,14-14S55.732,34,48,34z M49,49v9h-2
	v-9h-9v-2h9v-9h2v9h9v2H49z"/>
<path opacity="0.4" fill="#FFFFFF" d="M80,34c-7.732,0-14,6.268-14,14s6.268,14,14,14s14-6.268,14-14S87.732,34,80,34z M76,55h-3v-3
	l8.828-8.657l2.828,2.828L76,55z M86.071,44.757l-2.828-2.828l2.414-2.414l2.828,2.828L86.071,44.757z"/>
<path opacity="0.4" fill="#FFFFFF" d="M16,34C8.268,34,2,40.268,2,48s6.268,14,14,14s14-6.268,14-14S23.732,34,16,34z
	 M23.778,54.364l-1.414,1.414L16,49.414l-6.364,6.364l-1.414-1.414L14.586,48l-6.364-6.364l1.414-1.414L16,46.586l6.364-6.364
	l1.414,1.414L17.414,48L23.778,54.364z"/>
<path fill-rule="evenodd" clip-rule="evenodd" fill="#0099AA" d="M143,0c-4.972,0-9,4.28-9,9.25c0,8.55,8,6.75,8,22.75h2.005
	c0-16,7.995-14.26,7.995-22.75C152,4.28,147.972,0,143,0z M143,12c-1.652,0-3-1.34-3-3c0-1.66,1.348-3,3-3s3,1.34,3,3
	C146,10.66,144.652,12,143,12z"/>
</svg>
